<?xml version="1.0" encoding="utf-8" ?>
<svg xmlns="http://www.w3.org/2000/svg" xmlns:xlink="http://www.w3.org/1999/xlink" width="819" height="819">
	<path fill="#CBF3F0" transform="scale(1.28088 1.28088)" d="M435.34 402.775C437.378 402.96 437.591 402.395 437.46 400.459C436.671 388.869 458.571 388.921 466.066 388.519C488.155 387.334 510.681 388.809 526.731 370.824C547.5 347.552 533.628 312.501 506.526 300.777C496.645 296.503 482.528 295.908 481.429 280.787C480.635 269.875 488.78 261.001 499.637 260.587C517.155 259.92 536.652 270.67 549.137 282.371C583.057 314.162 584.9 368.735 552.942 402.591C523.162 434.141 492.717 428.701 453.757 428.716C449.844 428.717 441.518 429.345 438.108 428.53C438.891 420.291 438.207 410.45 435.34 402.775Z"/>
	<path fill="#CBF3F0" transform="scale(1.28088 1.28088)" d="M204.561 428.695C179.618 429 145.109 431.478 123.07 421.138C60.7836 391.914 52.8412 307.978 106.234 266.124C115.889 258.556 115.755 259.316 121.8 248.348C135.341 223.78 165.017 197.835 191.778 188.247C202.109 184.546 197.675 187.822 206.301 178.852C256.481 126.672 334.261 129.028 384.955 180.391C394.236 189.793 413.878 214.309 415.902 227.132C417.564 237.67 410.564 247.002 400.051 248.52C386.973 250.408 380.53 241.884 373.721 232.268C364.792 219.658 355.082 208.251 342.596 198.935C305.527 171.274 260.101 177.185 230.307 212.035C220.292 223.749 217.846 226.576 203.047 231.23C146.323 249.066 164.399 282.563 136.433 296.004C102.997 312.074 100.914 359.04 132.503 379.647C152.991 393.012 190.031 386.06 198.546 392.508C201.579 394.805 203.031 395.571 203.564 399.129C204.004 397.806 203.933 396.571 204.692 395.299C204.713 406.374 203.997 417.652 204.561 428.695Z"/>
	<defs>
		<linearGradient id="gradient_0" gradientUnits="userSpaceOnUse" x1="320.18015" y1="334.82819" x2="321.79791" y2="486.19836">
			<stop offset="0" stop-color="#32FFD8"/>
			<stop offset="1" stop-color="#56C8FC"/>
		</linearGradient>
	</defs>
	<path fill="url(#gradient_0)" transform="scale(1.28088 1.28088)" d="M204.692 395.299C205.624 375.644 201.937 360.061 218.272 345.247C229.472 335.089 242.377 335.262 256.501 335.273L313.94 335.273C332.122 335.28 349.53 333.549 363.026 348.534C374.555 361.334 380.022 383.975 400.034 385.077C414.068 385.85 429.532 386.944 435.34 402.775C438.207 410.45 438.891 420.291 438.108 428.53C437.161 439.59 440.884 472.014 432.372 477.954C422.644 489.867 402.697 486.355 389.158 486.356L270.97 486.369C260.148 486.372 235.711 488.52 226.348 483.904C201.489 475.158 205.882 448.725 204.588 429.074L204.561 428.695C203.997 417.652 204.713 406.374 204.692 395.299ZM311.576 434.844L267.535 434.825C259.418 434.826 234.837 431.243 234.893 444.63C234.954 459.627 262.778 455.495 272.094 455.494L323.203 455.443L367.783 455.497C373.271 455.507 391.398 457.538 395.368 453.489C401.493 447.244 399.749 436.435 390.214 435.006C386.937 434.515 383.451 434.768 380.138 434.793L311.576 434.844ZM248.875 388.862C237.096 390.28 232.718 402.096 241.95 408.205C247.519 411.889 256.766 409.981 263.044 409.978L329.974 409.985C335.026 409.994 340.469 410.442 345.469 409.891C356.772 408.546 361.986 396.553 353.907 390.923C348.297 387.013 333.302 388.714 326.732 388.712L262.843 388.716C258.307 388.717 253.378 388.359 248.875 388.862Z"/>
	<path fill="#41A9F0" transform="scale(1.28088 1.28088)" d="M226.348 483.904C227.653 483.211 231.661 485.128 233.232 485.448C236.907 486.197 241.609 485.851 245.358 485.83L278.037 485.803C289.044 485.866 297.576 484.261 307.907 483.962C331.082 483.29 354.324 484.25 377.511 483.915C380.72 483.868 397.935 483.439 397.99 485.304C402.257 486.633 407.963 484.91 412.371 484.664C423.976 484.018 422.529 485.054 432.022 477.769L432.372 477.954C422.644 489.867 402.697 486.355 389.158 486.356L270.97 486.369C260.148 486.372 235.711 488.52 226.348 483.904Z"/>
</svg>
