<?xml version="1.0" encoding="utf-8" ?>
<svg xmlns="http://www.w3.org/2000/svg" xmlns:xlink="http://www.w3.org/1999/xlink" width="1024" height="1024">
	<path fill="#2EC4B6" d="M0 0L1024 0L1024 1024L0 1024L0 633.433L0 607.111L0 0Z"/>
	<path fill="#EC6991" d="M196.155 596.328C216.457 590.294 235.427 590.498 254.396 600.802C267.641 607.996 278.661 619.845 282.971 634.488C286.713 647.203 285.512 660.772 279.125 672.414C272.401 684.668 261.689 692.777 249.14 698.434C230.193 704.828 212.571 706.364 193.511 698.882C178.603 693.03 166.003 681.437 159.709 666.629C154.709 654.864 154.352 642.191 159.173 630.307C166.032 613.399 179.806 603.277 196.155 596.328Z"/>
	<path fill="#F0ADB0" d="M218.853 596.712C235.296 596.009 252.475 602.61 264.518 613.729C273.778 622.278 280.171 634.533 280.604 647.232C281.03 659.708 276.06 671.045 267.564 680.064C256.025 692.314 239.373 698.526 222.812 699.061C206.127 699.17 189.549 694.278 176.934 683.026C167.73 674.817 161.008 662.516 160.318 650.086C159.658 638.176 164.356 626.822 172.234 618.031C184.547 604.293 200.719 597.812 218.853 596.712Z"/>
	<path fill="white" d="M0 0L1024 0L1024 1024L0 1024L0 633.433C1.80202 640.719 1.60818 649.24 2.62437 656.761C4.49723 670.622 8.20889 684.386 12.8587 697.56C34.3693 758.503 78.5053 807.334 136.887 835.161C178.14 854.824 227.088 861.856 272.147 853.75C286.314 851.202 299.716 847 313.262 842.199C316.623 850.277 320.057 858.382 324.265 866.062C343.617 901.383 373.992 930.582 409.45 949.514C461.043 977.061 521.193 982.436 577.108 965.211C626.579 949.971 670.352 914.51 699.008 871.828C704.81 863.186 709.638 853.934 714.467 844.728C748.172 857.654 793.487 859.963 828.853 853.822C890.156 843.176 943.824 808.361 979.494 757.5C1014.9 707.011 1030.5 640.734 1019.72 579.931C1008.4 515.993 969.782 459.43 916.905 422.505C923.188 398.216 925.227 373.543 922.063 348.6C915.185 294.38 885.762 246.036 842.711 212.829C807.289 185.508 755.017 168.27 710.151 174.117C703.82 161.271 696.877 148.606 688.532 136.944C667.331 107.317 636.966 82.8472 603.769 67.9292C550.076 43.8009 488.377 41.8741 433.36 62.8536C381.456 82.6466 338.608 122.035 315.877 172.798C296.715 171.291 277.514 172.425 258.717 176.543C208.055 187.643 162.91 218.974 134.935 262.673C103.947 311.077 94.6342 366.471 106.913 422.421L104.318 424.216C57.8437 456.575 21.5911 506.061 7.49987 561.188C3.40622 577.203 2.83326 591.348 0 607.111L0 0Z"/>
	<path fill="#6FD7CE" d="M330.874 196.126C335.603 184.094 341 172.183 347.832 161.183C367.624 129.313 398.666 102.267 433.038 87.3065C481.198 66.3454 535.828 65.9903 584.608 85.1981C631.172 103.533 670.633 140.916 690.553 186.975C692.2 190.783 693.792 194.619 695.267 198.497C740.057 191.161 786.841 201.377 823.925 227.951C863.667 256.431 889.873 297.272 897.765 345.672C902.717 376.038 898.893 405.612 890.131 434.886C941.947 463.849 976.13 507.211 992.23 564.414C1007.33 618.057 999.275 678.247 971.989 726.629C944.54 775.301 897.242 812.454 843.31 827.242C796.591 840.052 746.066 835.828 702.485 814.614C701.135 813.827 699.571 813.216 698.15 812.552C687.096 819.473 676.127 826.056 664.295 831.596C617.815 853.355 563.697 857.95 515.093 840.181C475.055 825.544 441.349 796.184 419.668 759.652C415.264 752.23 411.577 744.369 407.965 736.54C397.928 737.993 386.703 737.647 376.549 737.335C339.067 736.183 303.125 729.256 269.687 711.906C262.703 708.282 254.554 704.188 249.14 698.434C261.689 692.777 272.401 684.668 279.125 672.414C285.512 660.772 286.713 647.203 282.971 634.488C278.661 619.845 267.641 607.996 254.396 600.802C235.427 590.498 216.457 590.294 196.155 596.328C195.748 595.78 167.601 577.962 163.908 575.174C125.691 546.319 103.207 506.427 96.5944 459.247C107.309 449.413 119.607 442.841 131.687 434.988C128.54 421.8 125.856 408.768 124.648 395.246C121.035 354.805 130.11 313.097 151.463 278.484C176.064 238.608 215.498 209.791 261.183 199.184C284.201 193.841 307.466 193.679 330.874 196.126Z"/>
	<path d="M438.487 593.097C440.566 592.783 442.533 592.755 444.563 593.374C450.893 595.303 451.307 604.103 453.054 609.458C454.137 612.778 455.635 616.011 457.277 619.088C464.281 632.21 478.446 642.254 492.53 646.449C521.386 655.045 551.846 643.739 567.506 618.023C571.232 611.904 573.084 597.021 579.226 593.991C581.572 592.833 584.386 593.115 586.777 593.989C589.345 594.929 591.337 597.316 592.413 599.767C594.492 604.502 591.18 611.725 589.578 616.354C583.086 633.145 571.217 646.526 555.847 655.805C536.428 667.529 512.044 670.782 490.09 665.215C469.512 659.996 451.207 646.389 440.402 628.107C436.294 621.157 429.998 607.769 432.405 599.645C433.404 596.272 435.514 594.718 438.487 593.097Z"/>
	<path fill="white" d="M886.089 477.142C891.724 476.727 897.528 477.765 902.95 479.231C926.506 485.601 945.545 501.249 957.589 522.293C978.35 558.566 979.053 608.261 968.166 647.888L967.234 639.881C966.849 635.15 966.037 630.331 965.127 625.674C958.282 590.618 939.121 557.935 911.252 535.445C900.777 526.992 889.484 520.512 878.449 512.954C873.65 509.667 869.45 505.186 868.464 499.245C867.663 494.42 869.005 489.513 871.832 485.559C875.359 480.627 880.263 478.205 886.089 477.142Z"/>
	<path fill="white" d="M749.716 225.198C755.542 224.58 761.512 224.782 767.32 225.484C798.648 229.269 823.406 245.954 842.488 270.592C863.107 297.217 871.682 331.285 869.11 364.586C868.238 375.875 865.924 386.874 864.47 398.081C862.579 386.823 861.414 375.938 858.563 364.805C853.797 348.726 846.836 333.121 836.699 319.682C803.764 276.018 758.777 257.27 705.99 250.037C707.086 247.39 708.246 244.819 710.091 242.597C719.215 231.612 736.045 226.57 749.716 225.198Z"/>
	<path fill="white" d="M534.753 97.6952C542.151 96.5283 551.005 97.1657 558.378 98.0581C588.919 101.754 615.716 118.567 634.393 142.687C651.131 164.302 660.394 190.689 659.964 218.11C659.837 226.239 658.721 234.277 657.724 242.333C653.622 228.902 647.305 216.176 639.584 204.489C629.815 189.772 617.131 175.922 603.509 164.721C566.799 134.535 523.099 123.415 476.214 128.022C477.135 126.078 478.29 124.287 479.662 122.627C492.605 106.966 515.228 99.6806 534.753 97.6952Z"/>
	<path fill="#EC6991" d="M797.802 593.7C797.951 593.675 798.099 593.646 798.249 593.627C815.402 591.467 835.692 598.256 848.971 609.026C859.657 617.693 867.207 629.906 868.61 643.731C870.067 658.088 865.342 671.881 856.136 682.898C844.821 696.44 827.446 703.915 810.124 705.476C792.067 706.903 773.766 702.753 759.339 691.467C747.724 682.38 739.565 669.575 737.93 654.757C736.442 641.277 740.87 627.811 749.368 617.339C761.355 602.567 779.315 595.619 797.802 593.7Z"/>
	<path fill="#F0ADB0" d="M796.899 598.202C812.664 596.033 830.304 600.82 843.007 610.235C853.719 618.176 862.249 629.842 864.072 643.282C865.748 655.641 861.788 667.685 854.253 677.451C843.104 691.899 827.821 698.441 810.112 700.704C792.955 702.418 775.527 697.899 761.879 687.177C751.679 679.164 744.292 667.448 742.829 654.436C741.467 642.321 745.178 629.927 752.89 620.511C763.76 607.241 780.076 599.962 796.899 598.202Z"/>
	<path fill="#06585C" d="M710.769 408.211C733.98 406.718 756.724 414.194 774.54 429.147C794.237 445.68 806.147 469.426 808.271 495.043C810.31 519.647 802.558 544.113 786.517 562.959C770.752 581.48 748.855 590.951 725.004 592.94C700.049 593.603 678.445 587.269 659.345 570.77C640.702 554.665 628.01 530.425 626.261 505.765C624.474 480.568 632.302 456.389 649.005 437.384C665.057 419.117 686.731 409.695 710.769 408.211Z"/>
	<path fill="white" d="M682.454 516.571C685.443 516.548 688.334 517.002 690.921 518.586C694.212 520.601 696.489 523.952 697.229 527.733C697.98 531.569 697.108 535.701 694.89 538.916C692.503 542.378 689.311 544.047 685.271 544.832C682.385 544.665 679.892 544.443 677.29 543.029C673.792 541.127 671.302 537.865 670.367 533.996C669.47 530.284 670.101 526.382 672.165 523.165C674.599 519.374 678.219 517.623 682.454 516.571Z"/>
	<path fill="white" d="M741.771 434.138C750.518 433.299 758.926 434.776 766.161 439.982C773.756 445.447 778.86 453.944 780.228 463.187C781.604 472.484 779.409 481.866 773.748 489.406C767.888 497.209 759.395 501.476 749.865 502.839C741.681 503.775 733.048 501.924 726.2 497.291C718.52 492.095 713.168 483.768 711.508 474.651C709.878 465.696 712.493 455.878 717.735 448.514C723.542 440.357 732.01 435.718 741.771 434.138Z"/>
	<path fill="#06585C" d="M297.822 408.689C319.659 406.029 343.717 412.548 361.486 425.369C381.565 439.856 394.717 461.877 398.497 486.281C402.259 510.575 396.071 535.919 381.439 555.672C366.114 576.361 344.38 588.602 319.031 592.382C294.775 594.547 272.125 589.648 252.509 574.653C232.797 559.585 220.039 537.815 216.862 513.153C213.761 489.074 219.826 463.503 234.844 444.228C250.653 423.938 272.376 411.869 297.822 408.689Z"/>
	<path fill="white" d="M276.211 518.08C279.403 517.823 282.161 517.759 285.147 519.171C288.339 520.68 290.797 523.37 291.979 526.704C293.293 530.412 292.977 534.544 291.201 538.047C289.169 542.056 285.922 544.111 281.767 545.449C278.88 545.599 276.331 545.731 273.596 544.566C270.036 543.05 267.17 540.146 265.824 536.504C264.485 532.877 264.758 528.94 266.536 525.512C268.589 521.556 272.092 519.401 276.211 518.08Z"/>
	<path fill="white" d="M333.272 433.636C341.421 432.772 350.075 435.061 356.77 439.761C364.276 445.031 369.243 453.085 370.737 462.116C372.275 471.415 370.381 480.946 364.804 488.609C358.835 496.812 350.428 501.197 340.538 502.764C332.231 503.676 323.834 501.869 316.879 497.155C309.317 492.031 304.168 483.898 302.542 474.928C300.864 465.675 302.924 456.014 308.373 448.335C314.464 439.751 323.084 435.372 333.272 433.636Z"/>
</svg>
