<?xml version="1.0" encoding="utf-8" ?>
<svg xmlns="http://www.w3.org/2000/svg" xmlns:xlink="http://www.w3.org/1999/xlink" width="814" height="814">
	<path fill="#01F1CA" transform="scale(1.2722 1.2722)" d="M144.581 257.047C145.035 247.014 146.324 236.466 148.918 226.76C154.665 205.256 167.704 183.243 184.143 168.229C187.108 165.522 190.074 162.678 193.23 160.2C218.202 140.586 248.121 131.615 279.701 133.152C312.562 134.752 343.176 149.68 365.049 174.096C371.574 181.38 377.635 189.713 382.391 198.274C386.976 195.897 391.87 194.481 396.878 193.302C412.886 189.532 429.221 189.598 444.965 194.652C467.206 201.791 484.396 216.58 494.926 237.405C497.981 243.447 500.679 250.389 502.165 257.013C524.196 261.037 543.306 273.039 556.114 291.487C569.106 310.202 574.359 333.547 570.237 355.976C566.097 378.501 553.273 399.123 534.282 412.059C524.239 418.9 512.434 423.843 500.432 425.831C495.656 426.622 490.836 426.892 486.043 427.499C477.978 428.124 469.887 427.99 461.804 427.993C451.451 427.997 441.101 427.998 430.749 427.757C429.288 427.599 427.798 427.55 426.33 427.449C424.426 445.351 428.625 469.041 423.934 486.072C422.544 491.118 420.088 495.952 416.526 499.814C407.346 509.767 392.217 511.399 379.424 511.782C370.936 512.037 362.375 511.831 353.879 511.828L306.287 511.814L282.078 511.847C273.984 511.904 265.593 512.339 257.603 510.821C250.797 509.527 245.042 506.815 239.998 502.037C235.37 497.653 231.614 492.317 229.549 486.26C226.512 477.347 227.037 467.815 227.04 458.537C227.042 448.115 227.438 437.614 227.207 427.206C224.594 427.696 221.814 427.793 219.162 427.825C210.263 427.933 201.305 427.501 192.39 427.512C168.298 427.539 143.387 428.44 121.373 416.907C116.931 414.58 112.347 411.785 108.742 408.273C104.551 405.304 100.778 400.556 97.6596 396.494C87.8112 383.669 81.6363 373.311 78.8217 356.941C74.6171 332.487 80.9147 308.316 95.174 288.148C106.151 272.621 123.569 260.572 142.47 257.364C143.172 257.245 143.876 257.137 144.581 257.047Z"/>
	<path fill="#4EC3F7" transform="scale(1.2722 1.2722)" d="M430.749 427.757C431.029 426.043 430.727 424.427 430.881 422.724C432.599 422.072 434.635 422.337 436.459 422.093C439.135 421.735 441.762 421.033 444.438 420.677C447.397 420.284 450.446 420.375 453.427 420.201C457.906 419.941 462.414 419.093 466.903 419.506C472.275 420 477.563 421.728 482.937 422.439C484.55 422.652 486.086 422.488 487.681 422.582C488.588 422.635 489.019 422.673 489.608 423.369L489.514 423.889C488.394 424.062 487.386 424.148 486.414 424.764C485.865 425.533 485.984 426.203 486.022 427.1L486.043 427.499C477.978 428.124 469.887 427.99 461.804 427.993C451.451 427.997 441.101 427.998 430.749 427.757Z"/>
	<path fill="#4EC3F7" transform="scale(1.2722 1.2722)" d="M226.997 419.868C226.387 415.992 226.81 412.038 226.736 408.129C226.483 394.689 227.161 381.366 227.332 367.936C227.461 357.775 227.384 347.611 227.352 337.45C227.327 329.594 227.148 321.721 228.033 313.899C229.268 302.988 232.463 291.608 241.453 284.518C246.537 280.509 252.831 278.003 259.184 276.904C266.096 275.708 273.318 275.999 280.311 276.009L305.901 276.024C316.891 276.007 327.848 275.722 338.838 276.074C342.07 276.178 345.483 276.053 348.687 276.443C353.494 276.689 358.7 276.833 362.981 279.329C366.712 281.504 371.739 287.568 374.941 290.805C380.687 296.615 386.496 302.418 392.402 308.066C400.21 315.534 408.732 322.106 416 330.157C421.645 336.409 425.989 343.248 425.932 351.924C425.044 372.617 426.887 393.167 426.581 413.826C426.517 418.144 427.097 423.23 426.33 427.449C424.426 445.351 428.625 469.041 423.934 486.072C422.544 491.118 420.088 495.952 416.526 499.814C407.346 509.767 392.217 511.399 379.424 511.782C370.936 512.037 362.375 511.831 353.879 511.828L306.287 511.814L282.078 511.847C273.984 511.904 265.593 512.339 257.603 510.821C250.797 509.527 245.042 506.815 239.998 502.037C235.37 497.653 231.614 492.317 229.549 486.26C226.512 477.347 227.037 467.815 227.04 458.537C227.042 448.115 227.438 437.614 227.207 427.206C224.594 427.696 221.814 427.793 219.162 427.825C210.263 427.933 201.305 427.501 192.39 427.512C168.298 427.539 143.387 428.44 121.373 416.907C116.931 414.58 112.347 411.785 108.742 408.273C108.872 408.151 108.995 408.023 109.132 407.908C109.795 407.354 114.791 407.5 116.105 407.349C118.256 407.101 120.463 406.725 122.628 406.975C124.791 407.226 126.877 408.512 128.995 409.097C131.391 409.758 133.838 410.216 136.229 410.903C143.302 412.936 150.949 415.662 158.256 416.574C165.102 417.429 172.192 416.879 179.086 417.085C184.292 417.24 189.314 418.69 194.519 418.927C205.347 419.42 216.236 418.634 226.997 419.868Z"/>
	<path fill="#FEFEFE" transform="scale(1.2722 1.2722)" d="M348.687 276.443C353.494 276.689 358.7 276.833 362.981 279.329C366.712 281.504 371.739 287.568 374.941 290.805C380.687 296.615 386.496 302.418 392.402 308.066C400.21 315.534 408.732 322.106 416 330.157C421.645 336.409 425.989 343.248 425.932 351.924C416.602 353.386 406.56 352.341 397.124 352.247C389.548 352.171 381.34 352.958 373.88 351.533C369.24 350.647 364.524 348.827 360.704 346.014C352.475 339.954 350.144 330.611 348.732 320.95C348.259 317.719 347.93 314.453 347.806 311.189C347.645 306.92 347.318 278.29 348.687 276.443Z"/>
	<path fill="#FEFEFE" transform="scale(1.2722 1.2722)" d="M369.877 365.418C370.44 365.365 370.998 365.336 371.563 365.336C377.745 365.339 383.874 367.996 388.245 372.348C392.048 376.135 394.357 381.491 394.268 386.882C394.192 391.42 392.345 395.689 389.879 399.424C386.65 404.315 382.084 408.617 378.066 412.869L359.457 432.61C353.572 438.915 348.358 445.848 342.223 451.917C336.396 457.683 328.889 462.938 320.305 462.705C309.115 462.401 300.069 450.57 293.056 443.014C289.092 438.72 284.604 434.938 280.688 430.579C274.993 424.241 269.699 416.633 270.217 407.731C270.538 402.212 273.011 397.058 277.181 393.416C281.095 389.998 286.538 388.205 291.725 388.583C303.727 389.455 313.238 401.936 320.534 410.316C326.746 402.07 334.225 395.418 341.341 388.012C347.15 381.966 352.417 374.887 359.29 369.986C362.49 367.704 366.09 366.354 369.877 365.418Z"/>
</svg>
