<?xml version="1.0" encoding="utf-8" ?>
<svg xmlns="http://www.w3.org/2000/svg" xmlns:xlink="http://www.w3.org/1999/xlink" width="1027" height="1028">
	<path fill="#9BC1BC" transform="scale(1.60625 1.60625)" d="M163.607 245.529L163.792 245.098C165.891 240.167 166.876 234.549 168.189 229.349C198.829 108.068 369.506 88.4221 426.382 203.196C427.83 206.118 429.105 209.254 430.795 212.039C473.943 216.838 498.048 235.556 505.453 278.689C528.58 284.031 545.06 292.561 558.049 313.233C580.27 348.597 567.924 396.096 532.808 417.859C516.336 428.067 502.465 428.754 483.798 428.747L458.404 428.753C456.879 431.646 459.313 462.946 456.334 473.432C447.504 504.513 417.365 500.655 392.772 500.635L279.787 500.648C263.312 500.662 244.027 503.742 230.105 492.932C208.748 476.349 217.741 451.711 214.841 429.276C214.309 428.659 212.406 428.775 211.545 428.706L178.865 428.741C147.726 428.774 124.156 426.401 100.269 402.237C65.5433 367.109 66.4414 307.127 101.652 272.689C121.921 252.864 137.495 248.982 163.607 245.529ZM224.115 289.024C211.603 299.761 214.447 324.386 214.45 339.147L214.44 403.103C214.439 409.086 214.236 415.135 214.389 421.112C214.482 424.718 216.419 428.438 211.545 428.706C212.406 428.775 214.309 428.659 214.841 429.276C217.741 451.711 208.748 476.349 230.105 492.932C244.027 503.742 263.312 500.662 279.787 500.648L392.772 500.635C417.365 500.655 447.504 504.513 456.334 473.432C459.313 462.946 456.879 431.646 458.404 428.753C459.178 421.884 458.745 414.612 458.746 407.702L458.68 371.685C459.478 336.939 447.44 333.97 423.943 312.245C412.057 301.255 393.117 279.615 376.7 276.401C369.779 275.046 361.677 275.629 354.641 275.625L276.38 275.617C257.95 275.622 237.16 272.918 224.115 289.024Z"/>
	<defs>
		<linearGradient id="gradient_0" gradientUnits="userSpaceOnUse" x1="331.73169" y1="502.63724" x2="340.01999" y2="275.61877">
			<stop offset="0" stop-color="#F4F1BB"/>
			<stop offset="1" stop-color="#DEE4FF"/>
		</linearGradient>
	</defs>
	<path fill="url(#gradient_0)" transform="scale(1.60625 1.60625)" d="M224.115 289.024C237.16 272.918 257.95 275.622 276.38 275.617L354.641 275.625C361.677 275.629 369.779 275.046 376.7 276.401C393.117 279.615 412.057 301.255 423.943 312.245C447.44 333.97 459.478 336.939 458.68 371.685L458.746 407.702C458.745 414.612 459.178 421.884 458.404 428.753C456.879 431.646 459.313 462.946 456.334 473.432C447.504 504.513 417.365 500.655 392.772 500.635L279.787 500.648C263.312 500.662 244.027 503.742 230.105 492.932C208.748 476.349 217.741 451.711 214.841 429.276C214.309 428.659 212.406 428.775 211.545 428.706C216.419 428.438 214.482 424.718 214.389 421.112C214.236 415.135 214.439 409.086 214.44 403.103L214.45 339.147C214.447 324.386 211.603 299.761 224.115 289.024ZM224.115 289.024C226.106 288.103 227.444 286.46 229.08 285.062C242.857 273.283 277.463 274.77 294.901 275.732C301.195 276.079 307.305 276.936 313.65 276.91C324.745 276.865 337.685 273.908 348.575 276.115C339.527 276.839 302.081 276.454 300.724 277.339C301.242 277.426 301.677 277.502 302.166 277.709L300.711 277.986C304.516 278.89 309.327 278.45 313.243 278.457L344.692 278.425C350.248 278.431 383.45 278.27 381.086 288.93C379.772 294.851 378.289 289.686 379.45 298.094L381.183 298.801C380.482 299.553 379.484 300.181 379.646 301.319C378.269 306.681 378.47 326.793 379.485 332.359C383.197 352.696 402.528 348.729 416.114 349.739C421.682 350.797 439.294 349.548 444.763 347.894C448.475 350.25 457.262 358.677 458.017 358.995C458.801 364.511 458.039 374.793 458.178 380.934C458.227 378.033 457.919 374.443 458.68 371.685C459.478 336.939 447.44 333.97 423.943 312.245C412.057 301.255 393.117 279.615 376.7 276.401C369.779 275.046 361.677 275.629 354.641 275.625L276.38 275.617C257.95 275.622 237.16 272.918 224.115 289.024Z"/>
	<path fill="#ED6A5A" transform="scale(1.60625 1.60625)" d="M264.322 340.379C271.297 339.942 307.527 339.664 310.805 341.573C317.549 345.501 314.634 354.9 307.33 356.518C299.824 356.734 292.261 356.461 284.746 356.502C278.194 356.537 259.953 359.279 257.257 350.852C255.506 345.376 259.262 341.687 264.322 340.379Z"/>
	<path fill="#ED6A5A" transform="scale(1.60625 1.60625)" d="M265.599 368.558C283.369 368.134 320.053 366.462 337.061 368.737C347.113 370.081 346.524 385.077 336.484 385.312C323.451 385.296 310.274 384.732 297.081 384.735L277.789 384.767C272.484 384.779 264.52 385.905 259.889 382.694C253.359 378.166 255.956 369.355 265.599 368.558Z"/>
	<path fill="#ED6A5A" transform="scale(1.60625 1.60625)" d="M384.739 297.754C391.845 300.494 430.26 337.005 432.12 341.095C437.392 352.686 421.557 349.405 416.114 349.739C402.528 348.729 383.197 352.696 379.485 332.359C378.47 326.793 378.269 306.681 379.646 301.319C381.281 299.891 382.75 298.681 384.739 297.754Z"/>
</svg>
