<?xml version="1.0" encoding="utf-8" ?>
<svg xmlns="http://www.w3.org/2000/svg" xmlns:xlink="http://www.w3.org/1999/xlink" width="852" height="426">
	<path fill="#7294F7" transform="matrix(0.888021 0 0 0.888021 0 -71.0417)" d="M423.738 487.444C426.099 498.76 430.175 492.857 445.097 494.082C455.059 494.899 465.057 496.077 475.056 496.292L549.468 497.718C571.068 497.919 591.276 496.462 612.405 496.247C628.181 496.087 684.188 496.699 692.106 500.959C692.34 499.199 692.717 497.362 692.638 495.586C696.911 504.805 683.495 518.939 674.826 520.241C666.466 521.498 657.511 520.68 649.067 520.672L497.748 520.662C480.817 520.665 463.799 521.066 446.878 520.676C426.292 520.202 423.286 504.566 423.738 487.444Z"/>
	<path fill="#7294F7" transform="matrix(0.888021 0 0 0.888021 0 -71.0417)" d="M527.682 320.451C541.888 319.99 589.996 318.301 602.546 320.899C636.524 327.932 631.325 375.167 596.809 377.025C577.206 376.317 537.127 379.426 520.046 376.071C490.252 370.22 489.826 322.49 527.682 320.451Z"/>
	<defs>
		<linearGradient id="gradient_0" gradientUnits="userSpaceOnUse" x1="556.86151" y1="498.05133" x2="560.82281" y2="326.53699">
			<stop offset="0" stop-color="#92BAF9"/>
			<stop offset="1" stop-color="#BFFEF4"/>
		</linearGradient>
	</defs>
	<path fill="url(#gradient_0)" transform="matrix(0.888021 0 0 0.888021 0 -71.0417)" d="M423.738 487.444C423.041 480.154 424.236 472.528 424.246 465.174L424.508 402.351C424.685 386.302 416.42 330.523 438.523 328.414C443.902 327.901 459.9 327.972 464.76 328.974C488.827 333.937 477.351 401.791 517.491 411.127C532.029 414.509 583.665 413.231 598.927 412.272C652.314 408.919 630.884 331.022 665.561 328.328C681.993 327.051 689.877 335.718 690.818 351.594C691.725 366.915 689.061 454.469 692.852 458.337C694.037 458.457 694.512 458.266 695.3 459.2L694.894 459.782L692.837 460.116C690.736 464.076 695.305 490.947 692.638 495.586C692.717 497.362 692.34 499.199 692.106 500.959C684.188 496.699 628.181 496.087 612.405 496.247C591.276 496.462 571.068 497.919 549.468 497.718L475.056 496.292C465.057 496.077 455.059 494.899 445.097 494.082C430.175 492.857 426.099 498.76 423.738 487.444Z"/>
	<defs>
		<linearGradient id="gradient_1" gradientUnits="userSpaceOnUse" x1="486.57834" y1="491.68933" x2="474.15985" y2="94.818619">
			<stop offset="0" stop-color="#7090FC"/>
			<stop offset="1" stop-color="#AAD9F5"/>
		</linearGradient>
	</defs>
	<path fill="url(#gradient_1)" transform="matrix(0.888021 0 0 0.888021 0 -71.0417)" d="M449.25 94.975C534.268 88.2521 605.608 135.999 650.855 204.253C653.489 208.228 658.688 214.278 659.472 218.822C748.908 218.754 831.953 283.016 832.32 376.252C832.569 439.745 793.253 485.432 728.243 485.377C700.232 485.353 705.491 462.77 706.278 443.725C706.582 436.385 706.319 428.938 706.392 421.578L706.411 374.808C706.436 363.464 707.771 349.726 705.235 338.774C696.938 302.948 660.644 309.203 634.053 308.575C594.783 307.648 556.709 307.216 517.345 307.104C500.309 307.469 483.239 307.147 466.197 307.136C410.711 307.1 407.714 317.729 407.725 366.577L407.728 435.545C407.735 473.043 412.526 485.442 371.463 485.378L279.287 485.386C260.51 485.393 241.321 486.584 222.901 482.294C172.631 470.588 138.554 427.118 134.11 376.235C128.261 309.281 180.459 246.417 247.455 240.668C252.811 233.257 256.183 223.526 260.5 215.393C297.08 146.486 370.567 97.0624 449.25 94.975Z"/>
</svg>
